<svg width="15" height="13" viewBox="0 0 15 13" fill="none" xmlns="http://www.w3.org/2000/svg">
<path d="M10.2002 7.70264L10.6885 7.21436C10.7812 7.12158 10.9375 7.1875 10.9375 7.3169V11.3281C10.9375 11.9751 10.4126 12.5 9.76562 12.5H1.17188C0.524902 12.5 0 11.9751 0 11.3281V2.73438C0 2.0874 0.524902 1.5625 1.17188 1.5625H8.30811C8.4375 1.5625 8.50342 1.72119 8.41064 1.81152L7.92236 2.2998C7.89551 2.32666 7.85644 2.34375 7.81982 2.34375H1.17188C0.957031 2.34375 0.78125 2.51953 0.78125 2.73438V11.3281C0.78125 11.543 0.957031 11.7188 1.17188 11.7188H9.76562C9.98047 11.7188 10.1562 11.543 10.1562 11.3281V7.80518C10.1562 7.76611 10.1709 7.72949 10.2002 7.70264ZM13.7622 3.03467L6.13281 10.6641L3.69385 10.9351C3.3667 10.9717 3.09082 10.6958 3.12744 10.3687L3.39844 7.92969L11.0278 0.300293C11.4282 -0.100098 12.0776 -0.100098 12.478 0.300293L13.7622 1.58447C14.1626 1.98486 14.1626 2.63428 13.7622 3.03467ZM11.4771 4.21631L9.84863 2.58789L4.14551 8.28857L3.94287 10.1221L5.77637 9.91943L11.4771 4.21631ZM13.2104 2.13623L11.9263 0.852051C11.8335 0.759277 11.6772 0.754395 11.582 0.852051L10.4004 2.03369L12.0288 3.66211L13.2104 2.48047C13.3057 2.3877 13.3057 2.23145 13.2104 2.13623Z" fill="white"/>
</svg>
