<svg width="26" height="19" viewBox="0 0 26 19" fill="none" xmlns="http://www.w3.org/2000/svg">
<path d="M13.6865 10.7256L23.0615 18.5137C24.0674 19.3486 25.625 18.6504 25.625 17.3125L25.625 1.68749C25.625 0.349604 24.0674 -0.353521 23.0615 0.486322L13.6865 8.32324C12.9395 8.95312 12.9395 10.1055 13.6865 10.7256ZM14.6875 9.52929L24.0625 1.68749L24.0625 17.3125L14.6875 9.52929ZM1.18652 10.7256L10.5615 18.5088C11.5674 19.3486 13.125 18.6504 13.125 17.3125L13.125 1.68749C13.125 0.349603 11.5674 -0.353523 10.5615 0.486321L1.18652 8.32323C0.439454 8.95312 0.439454 10.1055 1.18652 10.7256ZM2.1875 9.52929L11.5625 1.68749L11.5625 17.3125L2.1875 9.52929Z" fill="white"/>
<path d="M13.6865 10.7256L23.0615 18.5137C24.0674 19.3486 25.625 18.6504 25.625 17.3125L25.625 1.68749C25.625 0.349604 24.0674 -0.353521 23.0615 0.486322L13.6865 8.32324C12.9395 8.95312 12.9395 10.1055 13.6865 10.7256ZM14.6875 9.52929L24.0625 1.68749L24.0625 17.3125L14.6875 9.52929ZM1.18652 10.7256L10.5615 18.5088C11.5674 19.3486 13.125 18.6504 13.125 17.3125L13.125 1.68749C13.125 0.349603 11.5674 -0.353523 10.5615 0.486321L1.18652 8.32323C0.439454 8.95312 0.439454 10.1055 1.18652 10.7256ZM2.1875 9.52929L11.5625 1.68749L11.5625 17.3125L2.1875 9.52929Z" fill="white"/>
<path d="M13.6865 10.7256L23.0615 18.5137C24.0674 19.3486 25.625 18.6504 25.625 17.3125L25.625 1.68749C25.625 0.349604 24.0674 -0.353521 23.0615 0.486322L13.6865 8.32324C12.9395 8.95312 12.9395 10.1055 13.6865 10.7256ZM14.6875 9.52929L24.0625 1.68749L24.0625 17.3125L14.6875 9.52929ZM1.18652 10.7256L10.5615 18.5088C11.5674 19.3486 13.125 18.6504 13.125 17.3125L13.125 1.68749C13.125 0.349603 11.5674 -0.353523 10.5615 0.486321L1.18652 8.32323C0.439454 8.95312 0.439454 10.1055 1.18652 10.7256ZM2.1875 9.52929L11.5625 1.68749L11.5625 17.3125L2.1875 9.52929Z" fill="white"/>
</svg>
