<svg width="26" height="19" viewBox="0 0 26 19" fill="none" xmlns="http://www.w3.org/2000/svg">
<path d="M12.5635 8.27442L3.18848 0.486333C2.18262 -0.348628 0.625 0.349614 0.625 1.6875V17.3125C0.625 18.6504 2.18262 19.3535 3.18848 18.5137L12.5635 10.6768C13.3105 10.0469 13.3105 8.89454 12.5635 8.27442ZM11.5625 9.47071L2.1875 17.3125V1.6875L11.5625 9.47071ZM25.0635 8.27442L15.6885 0.491216C14.6826 -0.348628 13.125 0.349614 13.125 1.6875V17.3125C13.125 18.6504 14.6826 19.3535 15.6885 18.5137L25.0635 10.6768C25.8105 10.0469 25.8105 8.89454 25.0635 8.27442ZM24.0625 9.47071L14.6875 17.3125V1.6875L24.0625 9.47071Z" fill="white"/>
<path d="M12.5635 8.27442L3.18848 0.486333C2.18262 -0.348628 0.625 0.349614 0.625 1.6875V17.3125C0.625 18.6504 2.18262 19.3535 3.18848 18.5137L12.5635 10.6768C13.3105 10.0469 13.3105 8.89454 12.5635 8.27442ZM11.5625 9.47071L2.1875 17.3125V1.6875L11.5625 9.47071ZM25.0635 8.27442L15.6885 0.491216C14.6826 -0.348628 13.125 0.349614 13.125 1.6875V17.3125C13.125 18.6504 14.6826 19.3535 15.6885 18.5137L25.0635 10.6768C25.8105 10.0469 25.8105 8.89454 25.0635 8.27442ZM24.0625 9.47071L14.6875 17.3125V1.6875L24.0625 9.47071Z" fill="white"/>
<path d="M12.5635 8.27442L3.18848 0.486333C2.18262 -0.348628 0.625 0.349614 0.625 1.6875V17.3125C0.625 18.6504 2.18262 19.3535 3.18848 18.5137L12.5635 10.6768C13.3105 10.0469 13.3105 8.89454 12.5635 8.27442ZM11.5625 9.47071L2.1875 17.3125V1.6875L11.5625 9.47071ZM25.0635 8.27442L15.6885 0.491216C14.6826 -0.348628 13.125 0.349614 13.125 1.6875V17.3125C13.125 18.6504 14.6826 19.3535 15.6885 18.5137L25.0635 10.6768C25.8105 10.0469 25.8105 8.89454 25.0635 8.27442ZM24.0625 9.47071L14.6875 17.3125V1.6875L24.0625 9.47071Z" fill="white"/>
</svg>
