<svg width="50" height="49" viewBox="0 0 50 49" fill="none" xmlns="http://www.w3.org/2000/svg">
<path d="M25 48.4375C38.3789 48.4375 49.2188 37.5977 49.2188 24.2188C49.2188 10.8398 38.3789 -9.47649e-07 25 -2.11727e-06C11.6211 -3.28689e-06 0.781253 10.8398 0.781252 24.2187C0.781251 37.5977 11.6211 48.4375 25 48.4375ZM25 3.125C36.5918 3.125 46.0938 12.5098 46.0938 24.2187C46.0938 35.8105 36.709 45.3125 25 45.3125C13.4082 45.3125 3.90625 35.9277 3.90625 24.2187C3.90625 12.6269 13.291 3.125 25 3.125Z" fill="url(#paint0_angular)"/>
<defs>
<radialGradient id="paint0_angular" cx="0" cy="0" r="1" gradientUnits="userSpaceOnUse" gradientTransform="translate(25 24.2187) rotate(-90) scale(24.2188)">
<stop stop-color="#FF0265"/>
<stop offset="0.427083" stop-color="#E78D35"/>
<stop offset="0.427183" stop-color="#E78D35" stop-opacity="0"/>
<stop offset="1" stop-color="#E78D35" stop-opacity="0"/>
</radialGradient>
</defs>
</svg>
