<svg width="20" height="20" viewBox="0 0 20 20" fill="none" xmlns="http://www.w3.org/2000/svg">
<path d="M0 10.9838V15.1238L0.94457 13.4568C1.14633 13.1008 1.49426 12.8622 1.89914 12.8025C2.3041 12.7428 2.70602 12.8705 3.00207 13.1531L5.84508 15.867C5.9016 15.921 5.99035 15.9211 6.04711 15.8673L9.09309 12.9804C9.60172 12.4984 10.3984 12.4984 10.907 12.9804L13.953 15.8673C14.0098 15.9211 14.0985 15.921 14.155 15.867L16.998 13.1531C17.2941 12.8705 17.6962 12.7429 18.101 12.8025C18.5059 12.8622 18.8537 13.1008 19.0555 13.4568L20 15.1238V10.9838H0Z" fill="#FA3784"/>
<path d="M19.7497 17.0607L18.035 14.0345C18.0058 13.983 17.9612 13.9665 17.9289 13.9618C17.8966 13.957 17.8491 13.9598 17.8063 14.0007L14.9633 16.7146C14.4546 17.2002 13.6563 17.2016 13.1459 16.7178L10.1 13.8309C10.0435 13.7773 9.95488 13.7773 9.89828 13.8309L6.85234 16.7178C6.34195 17.2016 5.54367 17.2002 5.035 16.7146L2.19199 14.0007C2.14918 13.9598 2.10164 13.957 2.06938 13.9618C2.03707 13.9665 1.99242 13.983 1.96328 14.0345L0.248594 17.0607C0.206953 17.1342 0.151641 17.1949 0.0878906 17.2421C0.319492 17.9425 0.979922 18.4495 1.75695 18.4495H18.2413C19.0183 18.4495 19.6787 17.9426 19.9103 17.2423C19.8466 17.1951 19.7914 17.1342 19.7497 17.0607Z" fill="#FA3784"/>
<path d="M18.2422 7.71181H14.1566C14.4982 7.22646 14.5778 6.61212 14.3954 6.0665L19.0989 2.6086C19.3597 2.41692 19.4157 2.05017 19.224 1.78942C19.0323 1.52872 18.6656 1.47278 18.4048 1.66439L13.688 5.13208C12.9715 4.64306 11.9839 4.71571 11.3486 5.35099C11.0008 5.69876 10.8093 6.16114 10.8093 6.65302C10.8093 7.03759 10.9268 7.40392 11.1442 7.71177H8.71727C9.22254 6.99368 9.15488 5.99263 8.51324 5.35095C7.87797 4.71564 6.89031 4.64294 6.17387 5.132L1.45695 1.66439C1.19629 1.47278 0.829492 1.52864 0.637812 1.78942C0.446133 2.05017 0.502109 2.41689 0.762852 2.6086L5.46555 6.06587C5.40289 6.25267 5.36984 6.45024 5.36984 6.65306C5.36984 7.03763 5.48742 7.40396 5.7048 7.71181H1.75781C0.788555 7.71181 0 8.50036 0 9.46962V9.81192H20V9.46962C20 8.50036 19.2114 7.71181 18.2422 7.71181Z" fill="#FA3784"/>
</svg>
