<svg width="25" height="25" viewBox="0 0 25 25" fill="none" xmlns="http://www.w3.org/2000/svg">
<path d="M12.125 24.6094C18.8145 24.6094 24.2344 19.1895 24.2344 12.5C24.2344 5.81055 18.8145 0.390625 12.125 0.390625C5.43555 0.390625 0.015625 5.81055 0.015625 12.5C0.015625 19.1895 5.43555 24.6094 12.125 24.6094ZM1.57812 12.5C1.57812 6.7041 6.27051 1.95312 12.125 1.95312C17.9209 1.95312 22.6719 6.64551 22.6719 12.5C22.6719 18.2959 17.9795 23.0469 12.125 23.0469C6.3291 23.0469 1.57812 18.3545 1.57812 12.5ZM17.7744 11.6211L9.18066 6.39648C8.40918 5.9668 7.4375 6.51855 7.4375 7.42188V17.5781C7.4375 18.4766 8.4043 19.0332 9.18066 18.6035L17.7744 13.6719C18.5752 13.2275 18.5752 12.0703 17.7744 11.6211ZM9 16.3965V8.6377C9 8.4082 9.24902 8.2666 9.44434 8.38867L16.0117 12.3779C16.2021 12.4951 16.1973 12.7734 16.0068 12.8809L9.43945 16.6504C9.24414 16.7627 9 16.6211 9 16.3965Z" fill="white"/>
</svg>
