<svg width="16" height="23" viewBox="0 0 16 23" fill="none" xmlns="http://www.w3.org/2000/svg">
<path d="M0.710938 22.4863L1.10156 22.4863C1.42383 22.4863 1.6875 22.2227 1.6875 21.9004L1.6875 12.6084C1.74121 12.667 1.79492 12.7256 1.8584 12.7744L13.1865 22.1201C14.1924 22.96 15.75 22.2617 15.75 20.9238L15.75 2.17383C15.75 0.835938 14.1924 0.132812 13.1865 0.972656L1.8584 10.377C1.79492 10.4307 1.74121 10.4844 1.6875 10.543L1.6875 1.19726C1.6875 0.874999 1.42383 0.611327 1.10156 0.611327L0.710939 0.611327C0.388674 0.611327 0.125002 0.874999 0.125002 1.19726L0.125 21.9004C0.125 22.2227 0.388672 22.4863 0.710938 22.4863ZM2.68848 11.5781L14.1777 2.18359L14.1826 2.17871L14.1875 2.17383L14.1875 20.9238L14.1826 20.9189L14.1729 20.9141L2.68848 11.5781Z" fill="white"/>
</svg>
