<svg width="11" height="10" viewBox="0 0 11 10" fill="none" xmlns="http://www.w3.org/2000/svg">
<path d="M6.77566 5.00016L9.98076 1.79506L10.6417 1.1341C10.7392 1.03659 10.7392 0.878153 10.6417 0.78065L9.93451 0.0734399C9.837 -0.0240632 9.67856 -0.0240632 9.58106 0.0734399L5.715 3.9395L1.84894 0.0731273C1.75144 -0.0243758 1.593 -0.0243758 1.49549 0.0731273L0.787971 0.780337C0.690468 0.87784 0.690468 1.03628 0.787971 1.13379L4.65434 5.00016L0.787971 8.86621C0.690468 8.96372 0.690468 9.12216 0.787971 9.21966L1.49518 9.92687C1.59268 10.0244 1.75113 10.0244 1.84863 9.92687L5.715 6.06081L8.9201 9.26591L9.58106 9.92687C9.67856 10.0244 9.837 10.0244 9.93451 9.92687L10.6417 9.21966C10.7392 9.12216 10.7392 8.96372 10.6417 8.86621L6.77566 5.00016Z" fill="white"/>
</svg>
