<svg width="22" height="18" viewBox="0 0 22 18" fill="none" xmlns="http://www.w3.org/2000/svg">
<path d="M6.875 7.32852C6.875 6.95039 7.18437 6.64102 7.5625 6.64102H13.75V2.60625C13.75 2.30117 14.1195 2.14648 14.3344 2.36133L20.4188 8.51016C20.6895 8.78086 20.6895 9.21484 20.4188 9.48555L14.3344 15.6344C14.1195 15.8492 13.75 15.6988 13.75 15.3895V11.3547H7.5625C7.18437 11.3547 6.875 11.0453 6.875 10.6672V7.32852ZM5.5 7.32852V10.6672C5.5 11.8059 6.42383 12.7297 7.5625 12.7297H12.375V15.3895C12.375 16.9148 14.2227 17.6883 15.3055 16.6055L21.3941 10.4609C22.202 9.65312 22.202 8.34688 21.3941 7.53906L15.3055 1.39023C14.227 0.311719 12.375 1.07656 12.375 2.60625V5.26602H7.5625C6.42383 5.26602 5.5 6.19414 5.5 7.32852ZM0 2.8125V15.1875C0 16.3262 0.923828 17.25 2.0625 17.25H7.73438C8.01797 17.25 8.25 17.018 8.25 16.7344V16.3906C8.25 16.107 8.01797 15.875 7.73438 15.875H2.0625C1.68438 15.875 1.375 15.5656 1.375 15.1875V2.8125C1.375 2.43438 1.68438 2.125 2.0625 2.125H7.73438C8.01797 2.125 8.25 1.89297 8.25 1.60938V1.26562C8.25 0.982031 8.01797 0.75 7.73438 0.75H2.0625C0.923828 0.75 0 1.67383 0 2.8125Z" fill="white"/>
</svg>
