<svg width="25" height="22" viewBox="0 0 25 22" fill="none" xmlns="http://www.w3.org/2000/svg">
<path d="M24.3766 12.1984L21.2923 9.26965C20.9365 8.93449 20.4153 8.84512 19.9671 9.03848C19.5241 9.2284 19.25 9.63918 19.25 10.1114V12.375H16.5V5.67059C16.5 5.12488 16.2809 4.59637 15.8941 4.21008L12.2899 0.605859C11.9032 0.219141 11.379 0 10.8337 0H2.06207C0.923828 0.00429688 0 0.928125 0 2.06637V19.9379C0 21.0762 0.923828 22 2.06207 22H14.4379C15.5762 22 16.5 21.0762 16.5 19.9379V15.125H15.1254V19.9379C15.1254 20.3161 14.8161 20.6254 14.4379 20.6254H2.06207C1.68395 20.6254 1.37457 20.3161 1.37457 19.9379V2.06637C1.37457 1.68824 1.68395 1.375 2.06207 1.375H9.62629V5.84676C9.62629 6.41824 10.0861 6.875 10.6575 6.875H15.1254V12.375H7.21875C7.02883 12.375 6.875 12.5288 6.875 12.7188V13.4062C6.875 13.5962 7.02883 13.75 7.21875 13.75H19.25V16.0132C19.25 16.485 19.5241 16.8962 19.9671 17.0861C20.6087 17.3632 21.1221 17.0169 21.294 16.8545L24.3757 13.9275C24.6172 13.6984 24.7504 13.3912 24.7504 13.0629C24.7504 12.7346 24.6172 12.4266 24.3766 12.1984ZM11.0013 5.50301V1.40035C11.1216 1.43043 11.229 1.49059 11.3193 1.58082L14.9235 5.18504C15.0137 5.27527 15.0739 5.3827 15.1039 5.50301H11.0013ZM20.625 15.5925V10.5325L23.2891 13.0625L20.625 15.5925Z" fill="white"/>
</svg>
