<svg width="22" height="20" viewBox="0 0 22 20" fill="none" xmlns="http://www.w3.org/2000/svg">
<path d="M0 4.49999V4.15624C0 3.87265 0.232031 3.64062 0.515625 3.64062H5.06172C5.20352 3.64062 5.34102 3.70077 5.43984 3.8082L9.29414 7.97616L8.35742 8.99023L4.68359 5.01562H0.515625C0.232031 5.01562 0 4.78359 0 4.49999ZM21.5961 16.4711L18.8461 19.2211C17.9824 20.0848 16.5 19.4703 16.5 18.25V16.3594H15.3957C15.2539 16.3594 15.1164 16.2992 15.0176 16.1918L11.1633 12.0238L12.1 11.0098L15.7695 14.9844H16.5V12.75C16.5 11.5254 17.9824 10.9152 18.8461 11.7789L21.5961 14.5289C22.1332 15.066 22.1332 15.934 21.5961 16.4711ZM20.7453 15.3797L17.9953 12.6297C17.8879 12.5223 17.7031 12.5996 17.7031 12.75V18.25C17.7031 18.4047 17.8879 18.482 17.9953 18.3703L20.7453 15.6203C20.8141 15.5559 20.8141 15.4441 20.7453 15.3797ZM21.5961 5.47109L18.8461 8.22109C17.9824 9.08476 16.5 8.4703 16.5 7.24999V5.01562H15.7695L5.43984 16.1918C5.34102 16.2992 5.20352 16.3594 5.06172 16.3594H0.515625C0.232031 16.3594 0 16.1273 0 15.8437V15.5C0 15.2164 0.232031 14.9844 0.515625 14.9844H4.68359L15.0133 3.8082C15.1121 3.70077 15.2496 3.64062 15.3914 3.64062H16.5V1.74999C16.5 0.525382 17.9824 -0.0847738 18.8461 0.778898L21.5961 3.5289C22.1332 4.06601 22.1332 4.93398 21.5961 5.47109ZM20.7453 4.37968L17.9953 1.62968C17.8879 1.52226 17.7031 1.5996 17.7031 1.74999V7.24999C17.7031 7.40468 17.8879 7.48202 17.9953 7.3703L20.7453 4.6203C20.8141 4.55585 20.8141 4.44413 20.7453 4.37968Z" fill="white"/>
</svg>
