<svg width="22" height="22" viewBox="0 0 22 22" fill="none" xmlns="http://www.w3.org/2000/svg">
<path d="M21.3941 4.21008L17.7899 0.605859C17.4032 0.219141 16.879 0 16.3337 0H7.56207C6.42383 0.00429688 5.5 0.928125 5.5 2.06637V12.375H0.34375C0.153828 12.375 0 12.5288 0 12.7188V13.4062C0 13.5962 0.153828 13.75 0.34375 13.75H11V16.0132C11 16.485 11.2741 16.8962 11.7171 17.0861C12.3587 17.3632 12.8721 17.0169 13.044 16.8545L16.1257 13.9275C16.3672 13.6984 16.5004 13.3912 16.5004 13.0629C16.5004 12.7346 16.3677 12.427 16.127 12.1988L13.0427 9.27008C12.687 8.93492 12.1657 8.84555 11.7176 9.03891C11.2746 9.22883 11.0004 9.63961 11.0004 10.1118V12.375H6.875V2.06637C6.875 1.68824 7.18437 1.375 7.5625 1.375H15.1267V5.84676C15.1267 6.41824 15.5865 6.875 16.158 6.875H20.6259V19.9379C20.6259 20.3161 20.3165 20.6254 19.9384 20.6254H7.56207C7.18395 20.6254 6.87457 20.3161 6.87457 19.9379V15.125H5.5V19.9379C5.5 21.0762 6.42383 22 7.56207 22H19.9379C21.0762 22 22 21.0762 22 19.9379V5.67059C22 5.12531 21.7809 4.5968 21.3941 4.21008ZM12.375 10.5325L15.0391 13.0625L12.375 15.5925V10.5325ZM16.5013 5.50301V1.40035C16.6216 1.43043 16.729 1.49059 16.8193 1.58082L20.4235 5.18504C20.5137 5.27527 20.5739 5.3827 20.6039 5.50301H16.5013Z" fill="white"/>
</svg>
