<svg width="17" height="22" viewBox="0 0 17 22" fill="none" xmlns="http://www.w3.org/2000/svg">
<path d="M15.8941 4.2066L12.2891 0.601526C11.9023 0.214807 11.3781 -0.0043335 10.8324 -0.0043335H2.0625C0.923828 -3.6621e-05 0 0.923791 0 2.06246V19.9375C0 21.0761 0.923828 22 2.0625 22H14.4375C15.5762 22 16.5 21.0761 16.5 19.9375V5.66754C16.5 5.12184 16.2809 4.59332 15.8941 4.2066ZM14.923 5.18199C15.0133 5.27223 15.0734 5.37965 15.1035 5.49996H11V1.39645C11.1203 1.42653 11.2277 1.48668 11.318 1.57692L14.923 5.18199ZM14.4375 20.625H2.0625C1.68438 20.625 1.375 20.3156 1.375 19.9375V2.06246C1.375 1.68434 1.68438 1.37496 2.0625 1.37496H9.625V5.84371C9.625 6.4152 10.0848 6.87496 10.6562 6.87496H15.125V19.9375C15.125 20.3156 14.8156 20.625 14.4375 20.625ZM12.375 12.8906V13.2343C12.375 13.5179 12.143 13.75 11.8594 13.75H8.9375V16.6718C8.9375 16.9554 8.70547 17.1875 8.42188 17.1875H8.07812C7.79453 17.1875 7.5625 16.9554 7.5625 16.6718V13.75H4.64062C4.35703 13.75 4.125 13.5179 4.125 13.2343V12.8906C4.125 12.607 4.35703 12.375 4.64062 12.375H7.5625V9.45309C7.5625 9.16949 7.79453 8.93746 8.07812 8.93746H8.42188C8.70547 8.93746 8.9375 9.16949 8.9375 9.45309V12.375H11.8594C12.143 12.375 12.375 12.607 12.375 12.8906Z" fill="white"/>
</svg>
