<svg width="17" height="22" viewBox="0 0 17 22" fill="none" xmlns="http://www.w3.org/2000/svg">
<path d="M15.8941 4.2066L12.2891 0.601526C11.9023 0.214807 11.3781 -0.0043335 10.8324 -0.0043335H2.0625C0.923828 -3.6621e-05 0 0.923791 0 2.06246V19.9375C0 21.0761 0.923828 22 2.0625 22H14.4375C15.5762 22 16.5 21.0761 16.5 19.9375V5.66754C16.5 5.12184 16.2809 4.59332 15.8941 4.2066ZM14.923 5.18199C15.0133 5.27223 15.0734 5.37965 15.1035 5.49996H11V1.39645C11.1203 1.42653 11.2277 1.48668 11.318 1.57692L14.923 5.18199ZM14.4375 20.625H2.0625C1.68438 20.625 1.375 20.3156 1.375 19.9375V2.06246C1.375 1.68434 1.68438 1.37496 2.0625 1.37496H9.625V5.84371C9.625 6.4152 10.0848 6.87496 10.6562 6.87496H15.125V19.9375C15.125 20.3156 14.8156 20.625 14.4375 20.625ZM9.41875 10.6218L10.6906 11.8937C10.768 11.9711 10.768 12.0914 10.6906 12.1687L5.86094 16.9984L4.56758 17.1832C4.31406 17.2175 4.09492 17.0027 4.1293 16.7449L4.31406 15.4515L9.14375 10.6218C9.22109 10.5445 9.34141 10.5445 9.41875 10.6218ZM12.1859 10.6734L11.4813 11.3781C11.4039 11.4554 11.2836 11.4554 11.2062 11.3781L9.93437 10.1062C9.85703 10.0289 9.85703 9.90856 9.93437 9.83121L10.6391 9.12653C10.8926 8.87301 11.3008 8.87301 11.55 9.12653L12.1859 9.76246C12.4395 10.0117 12.4395 10.4199 12.1859 10.6734Z" fill="white"/>
</svg>
