<svg width="20" height="22" viewBox="0 0 20 22" fill="none" xmlns="http://www.w3.org/2000/svg">
<path d="M15.125 13.75C13.8961 13.75 12.7961 14.2871 12.0398 15.1379L7.93632 12.5727C8.34881 11.5672 8.35311 10.4328 7.93632 9.42734L12.0398 6.86211C12.7961 7.71289 13.8961 8.25 15.125 8.25C17.4023 8.25 19.25 6.40234 19.25 4.125C19.25 1.84766 17.4023 0 15.125 0C12.8476 0 11 1.84766 11 4.125C11 4.68359 11.1117 5.21211 11.3094 5.69766L7.20585 8.26289C6.4539 7.41211 5.3539 6.875 4.12499 6.875C1.84765 6.875 0 8.72266 0 11C0 13.2773 1.84765 15.125 4.12499 15.125C5.3539 15.125 6.4539 14.5879 7.21014 13.7371L11.3137 16.3023C11.1117 16.7879 11.0043 17.3164 11.0043 17.875C11.0043 20.1523 12.8519 22 15.1293 22C17.4066 22 19.2543 20.1523 19.2543 17.875C19.25 15.5977 17.4023 13.75 15.125 13.75ZM15.125 1.375C16.6418 1.375 17.875 2.6082 17.875 4.125C17.875 5.6418 16.6418 6.875 15.125 6.875C13.6082 6.875 12.375 5.6418 12.375 4.125C12.375 2.6082 13.6082 1.375 15.125 1.375ZM4.12499 13.75C2.6082 13.75 1.375 12.5168 1.375 11C1.375 9.4832 2.6082 8.25 4.12499 8.25C5.64179 8.25 6.87499 9.4832 6.87499 11C6.87499 12.5168 5.64179 13.75 4.12499 13.75ZM15.125 20.625C13.6082 20.625 12.375 19.3918 12.375 17.875C12.375 16.3582 13.6082 15.125 15.125 15.125C16.6418 15.125 17.875 16.3582 17.875 17.875C17.875 19.3918 16.6418 20.625 15.125 20.625Z" fill="white"/>
</svg>
