<svg width="20" height="20" viewBox="0 0 20 20" fill="none" xmlns="http://www.w3.org/2000/svg">
<path d="M18.6459 4.5834L15.0416 0.979098C14.6548 0.592303 14.1302 0.375003 13.5832 0.375H2.0625C0.923398 0.375 0 1.2984 0 2.4375V17.5625C0 18.7016 0.923398 19.625 2.0625 19.625H17.1875C18.3266 19.625 19.25 18.7016 19.25 17.5625V6.0418C19.25 5.4948 19.0327 4.97019 18.6459 4.5834ZM12.375 1.75V5.875H4.125V1.75H12.375ZM17.875 17.5625C17.875 17.9416 17.5666 18.25 17.1875 18.25H2.0625C1.68343 18.25 1.375 17.9416 1.375 17.5625V2.4375C1.375 2.05843 1.68343 1.75 2.0625 1.75H2.75V6.21875C2.75 6.7883 3.2117 7.25 3.78125 7.25H12.7188C13.2883 7.25 13.75 6.7883 13.75 6.21875V1.7711C13.8709 1.80093 13.9813 1.86327 14.0693 1.95135L17.6736 5.55566C17.7377 5.61935 17.7885 5.69511 17.823 5.77856C17.8576 5.86201 17.8752 5.95148 17.875 6.0418V17.5625ZM9.625 8.96875C7.54003 8.96875 5.84375 10.665 5.84375 12.75C5.84375 14.835 7.54003 16.5312 9.625 16.5312C11.71 16.5312 13.4062 14.835 13.4062 12.75C13.4062 10.665 11.71 8.96875 9.625 8.96875ZM9.625 15.1562C8.29817 15.1562 7.21875 14.0768 7.21875 12.75C7.21875 11.4232 8.29817 10.3438 9.625 10.3438C10.9518 10.3438 12.0312 11.4232 12.0312 12.75C12.0312 14.0768 10.9518 15.1562 9.625 15.1562Z" fill="white"/>
</svg>
