<svg width="451" height="52" viewBox="0 0 451 52" fill="none" xmlns="http://www.w3.org/2000/svg">
<path d="M48.5418 51L48.4698 7.872L27.3738 44.304H25.5738L4.47775 8.016V51H0.877751V0.599997H3.97375L26.5098 39.552L49.0458 0.599997H52.0698L52.1418 51H48.5418ZM89.4417 51.36C83.0577 51.36 78.0897 49.512 74.5377 45.816C71.0337 42.12 69.2817 36.72 69.2817 29.616V0.599997H72.9537V29.472C72.9537 35.664 74.3697 40.296 77.2017 43.368C80.0337 46.44 84.1377 47.976 89.5137 47.976C94.8417 47.976 98.9217 46.44 101.754 43.368C104.586 40.296 106.002 35.664 106.002 29.472V0.599997H109.674V29.616C109.674 36.72 107.898 42.12 104.346 45.816C100.794 49.512 95.8257 51.36 89.4417 51.36ZM140.055 51.36C136.359 51.36 132.831 50.736 129.471 49.488C126.159 48.192 123.567 46.536 121.695 44.52L123.351 41.784C125.127 43.656 127.503 45.192 130.479 46.392C133.503 47.544 136.671 48.12 139.983 48.12C144.783 48.12 148.407 47.208 150.855 45.384C153.303 43.56 154.527 41.184 154.527 38.256C154.527 36 153.879 34.2 152.583 32.856C151.287 31.512 149.679 30.48 147.759 29.76C145.839 29.04 143.247 28.296 139.983 27.528C136.287 26.616 133.311 25.728 131.055 24.864C128.847 24 126.951 22.68 125.367 20.904C123.831 19.08 123.063 16.656 123.063 13.632C123.063 11.184 123.711 8.952 125.007 6.936C126.303 4.872 128.271 3.24 130.911 2.04C133.599 0.839998 136.935 0.239997 140.919 0.239997C143.703 0.239997 146.439 0.647997 149.127 1.464C151.815 2.28 154.143 3.384 156.111 4.776L154.743 7.728C152.727 6.336 150.495 5.28 148.047 4.56C145.647 3.84 143.271 3.48 140.919 3.48C136.263 3.48 132.735 4.416 130.335 6.288C127.935 8.16 126.735 10.584 126.735 13.56C126.735 15.816 127.383 17.616 128.679 18.96C129.975 20.304 131.583 21.336 133.503 22.056C135.423 22.776 138.039 23.544 141.351 24.36C145.047 25.272 147.999 26.16 150.207 27.024C152.415 27.888 154.287 29.208 155.823 30.984C157.407 32.712 158.199 35.064 158.199 38.04C158.199 40.488 157.527 42.72 156.183 44.736C154.887 46.752 152.871 48.36 150.135 49.56C147.399 50.76 144.039 51.36 140.055 51.36ZM170.682 0.599997H174.354V51H170.682V0.599997ZM213.229 51.576C208.189 51.576 203.629 50.472 199.549 48.264C195.517 46.008 192.349 42.936 190.045 39.048C187.741 35.112 186.589 30.696 186.589 25.8C186.589 20.904 187.741 16.512 190.045 12.624C192.349 8.688 195.541 5.616 199.621 3.408C203.701 1.152 208.261 0.0239997 213.301 0.0239997C217.237 0.0239997 220.837 0.696 224.101 2.04C227.365 3.336 230.149 5.28 232.453 7.872L227.773 12.408C223.981 8.424 219.253 6.432 213.589 6.432C209.845 6.432 206.461 7.272 203.437 8.952C200.413 10.632 198.037 12.96 196.309 15.936C194.629 18.864 193.789 22.152 193.789 25.8C193.789 29.448 194.629 32.76 196.309 35.736C198.037 38.664 200.413 40.968 203.437 42.648C206.461 44.328 209.845 45.168 213.589 45.168C219.205 45.168 223.933 43.152 227.773 39.12L232.453 43.656C230.149 46.248 227.341 48.216 224.029 49.56C220.765 50.904 217.165 51.576 213.229 51.576ZM242.724 0.599997H249.924V44.736H277.212V51H242.724V0.599997ZM307.312 51.576C302.224 51.576 297.64 50.472 293.56 48.264C289.48 46.008 286.264 42.912 283.912 38.976C281.608 35.04 280.456 30.648 280.456 25.8C280.456 20.952 281.608 16.56 283.912 12.624C286.264 8.688 289.48 5.616 293.56 3.408C297.64 1.152 302.224 0.0239997 307.312 0.0239997C312.352 0.0239997 316.912 1.152 320.992 3.408C325.072 5.616 328.264 8.688 330.568 12.624C332.872 16.512 334.024 20.904 334.024 25.8C334.024 30.696 332.872 35.112 330.568 39.048C328.264 42.936 325.072 46.008 320.992 48.264C316.912 50.472 312.352 51.576 307.312 51.576ZM307.312 45.168C311.008 45.168 314.32 44.328 317.248 42.648C320.224 40.968 322.552 38.664 324.232 35.736C325.96 32.76 326.824 29.448 326.824 25.8C326.824 22.152 325.96 18.864 324.232 15.936C322.552 12.96 320.224 10.632 317.248 8.952C314.32 7.272 311.008 6.432 307.312 6.432C303.616 6.432 300.256 7.272 297.232 8.952C294.256 10.632 291.904 12.96 290.176 15.936C288.496 18.864 287.656 22.152 287.656 25.8C287.656 29.448 288.496 32.76 290.176 35.736C291.904 38.664 294.256 40.968 297.232 42.648C300.256 44.328 303.616 45.168 307.312 45.168ZM365.909 51.576C359.189 51.576 353.957 49.656 350.213 45.816C346.469 41.976 344.597 36.456 344.597 29.256V0.599997H351.797V28.968C351.797 39.768 356.525 45.168 365.981 45.168C370.589 45.168 374.117 43.848 376.565 41.208C379.013 38.52 380.237 34.44 380.237 28.968V0.599997H387.221V29.256C387.221 36.504 385.349 42.048 381.605 45.888C377.861 49.68 372.629 51.576 365.909 51.576ZM401.982 0.599997H423.222C428.55 0.599997 433.278 1.656 437.406 3.768C441.534 5.88 444.726 8.856 446.982 12.696C449.286 16.488 450.438 20.856 450.438 25.8C450.438 30.744 449.286 35.136 446.982 38.976C444.726 42.768 441.534 45.72 437.406 47.832C433.278 49.944 428.55 51 423.222 51H401.982V0.599997ZM422.79 44.736C426.87 44.736 430.446 43.944 433.518 42.36C436.638 40.776 439.038 38.568 440.718 35.736C442.398 32.856 443.238 29.544 443.238 25.8C443.238 22.056 442.398 18.768 440.718 15.936C439.038 13.056 436.638 10.824 433.518 9.24C430.446 7.656 426.87 6.864 422.79 6.864H409.182V44.736H422.79Z" fill="white"/>
</svg>
