<svg width="939" height="706" viewBox="0 0 939 706" fill="none" xmlns="http://www.w3.org/2000/svg">
<path fill-rule="evenodd" clip-rule="evenodd" d="M489.652 -320.671C567.483 -295.302 639.308 -262.403 702.092 -209.573C775.113 -148.13 870.428 -88.6984 879.178 7.09726C887.926 102.863 780.1 164.845 744.458 254.237C698.847 368.63 741.019 526.835 642.738 600.091C545.537 672.542 397.746 647.208 290.167 592.851C192.055 543.279 178.29 410.333 104.677 328.225C29.97 244.896 -131.713 224.355 -140.866 112.074C-150.053 -0.61337 -2.78295 -56.0407 66.0525 -145.572C122.537 -219.039 140.632 -329.622 225.79 -364.823C310.583 -399.873 402.731 -349.002 489.652 -320.671Z" fill="url(#paint0_linear)" fill-opacity="0.1"/>
<defs>
<linearGradient id="paint0_linear" x1="457.677" y1="-344.929" x2="251.161" y2="600.785" gradientUnits="userSpaceOnUse">
<stop stop-color="white"/>
<stop offset="1" stop-color="white" stop-opacity="0"/>
</linearGradient>
</defs>
</svg>
