<?xml version="1.0" encoding="utf-8"?>
<!-- Generator: Adobe Illustrator 21.0.1, SVG Export Plug-In . SVG Version: 6.00 Build 0)  -->
<svg version="1.1" id="Layer_1" xmlns="http://www.w3.org/2000/svg" xmlns:xlink="http://www.w3.org/1999/xlink" x="0px" y="0px"
	 viewBox="0 0 800 200" style="enable-background:new 0 0 800 200;" xml:space="preserve">
<style type="text/css">
	.st0{fill:#FFFFFF;}
	.st1{fill-rule:evenodd;clip-rule:evenodd;fill:url(#SVGID_1_);}
</style>
<path class="st0" d="M88.6,138.1l-0.1-56.7l-27.7,47.9h-2.4L30.6,81.5v56.5h-4.7V71.8h4.1L59.6,123l29.6-51.2h4l0.1,66.3H88.6z
	 M142.3,138.5c-8.4,0-14.9-2.4-19.6-7.3c-4.6-4.9-6.9-12-6.9-21.3V71.8h4.8v38c0,8.1,1.9,14.2,5.6,18.3c3.7,4,9.1,6.1,16.2,6.1
	c7,0,12.4-2,16.1-6.1c3.7-4,5.6-10.1,5.6-18.3v-38h4.8v38.2c0,9.3-2.3,16.4-7,21.3C157.3,136.1,150.7,138.5,142.3,138.5z
	 M208.9,138.5c-4.9,0-9.5-0.8-13.9-2.5c-4.4-1.7-7.8-3.9-10.2-6.5l2.2-3.6c2.3,2.5,5.5,4.5,9.4,6.1c4,1.5,8.1,2.3,12.5,2.3
	c6.3,0,11.1-1.2,14.3-3.6c3.2-2.4,4.8-5.5,4.8-9.4c0-3-0.9-5.3-2.6-7.1c-1.7-1.8-3.8-3.1-6.3-4.1c-2.5-0.9-5.9-1.9-10.2-2.9
	c-4.9-1.2-8.8-2.4-11.7-3.5c-2.9-1.1-5.4-2.9-7.5-5.2c-2-2.4-3-5.6-3-9.6c0-3.2,0.9-6.2,2.6-8.8c1.7-2.7,4.3-4.9,7.8-6.4
	c3.5-1.6,7.9-2.4,13.2-2.4c3.7,0,7.3,0.5,10.8,1.6c3.5,1.1,6.6,2.5,9.2,4.4l-1.8,3.9c-2.7-1.8-5.6-3.2-8.8-4.2
	c-3.2-0.9-6.3-1.4-9.4-1.4c-6.1,0-10.8,1.2-13.9,3.7c-3.2,2.5-4.7,5.6-4.7,9.6c0,3,0.9,5.3,2.6,7.1c1.7,1.8,3.8,3.1,6.3,4.1
	c2.5,0.9,6,2,10.3,3c4.9,1.2,8.7,2.4,11.6,3.5c2.9,1.1,5.4,2.9,7.4,5.2c2.1,2.3,3.1,5.4,3.1,9.3c0,3.2-0.9,6.2-2.7,8.8
	c-1.7,2.7-4.4,4.8-8,6.3C218.5,137.7,214.1,138.5,208.9,138.5z M249.2,71.8h4.8v66.3h-4.8V71.8z M305.1,138.8
	c-6.6,0-12.6-1.5-18-4.4c-5.3-3-9.5-7-12.5-12.1c-3-5.2-4.5-11-4.5-17.4s1.5-12.2,4.5-17.3c3-5.2,7.2-9.2,12.6-12.1
	c5.4-3,11.4-4.4,18-4.4c5.2,0,9.9,0.9,14.2,2.7c4.3,1.7,8,4.3,11,7.7l-6.2,6c-5-5.2-11.2-7.9-18.7-7.9c-4.9,0-9.4,1.1-13.3,3.3
	c-4,2.2-7.1,5.3-9.4,9.2c-2.2,3.8-3.3,8.2-3.3,13c0,4.8,1.1,9.2,3.3,13.1c2.3,3.8,5.4,6.9,9.4,9.1c4,2.2,8.4,3.3,13.3,3.3
	c7.4,0,13.6-2.7,18.7-8l6.2,6c-3,3.4-6.7,6-11.1,7.8C315,137.9,310.3,138.8,305.1,138.8z M343.9,71.8h9.5v58h35.9v8.2h-45.3V71.8z
	 M428.8,138.8c-6.7,0-12.7-1.5-18.1-4.4c-5.4-3-9.6-7-12.7-12.2c-3-5.2-4.5-11-4.5-17.3s1.5-12.1,4.5-17.3
	c3.1-5.2,7.3-9.2,12.7-12.1c5.4-3,11.4-4.4,18.1-4.4c6.6,0,12.6,1.5,18,4.4c5.4,2.9,9.6,6.9,12.6,12.1c3,5.1,4.5,10.9,4.5,17.3
	s-1.5,12.2-4.5,17.4c-3,5.1-7.2,9.2-12.6,12.1C441.4,137.4,435.4,138.8,428.8,138.8z M428.8,130.4c4.9,0,9.2-1.1,13.1-3.3
	c3.9-2.2,7-5.2,9.2-9.1c2.3-3.9,3.4-8.3,3.4-13.1c0-4.8-1.1-9.1-3.4-13c-2.2-3.9-5.3-7-9.2-9.2c-3.8-2.2-8.2-3.3-13.1-3.3
	c-4.9,0-9.3,1.1-13.3,3.3c-3.9,2.2-7,5.3-9.3,9.2c-2.2,3.8-3.3,8.2-3.3,13c0,4.8,1.1,9.2,3.3,13.1c2.3,3.8,5.4,6.9,9.3,9.1
	C419.5,129.3,423.9,130.4,428.8,130.4z M505.9,138.8c-8.8,0-15.7-2.5-20.6-7.6c-4.9-5-7.4-12.3-7.4-21.8V71.8h9.5v37.3
	c0,14.2,6.2,21.3,18.7,21.3c6.1,0,10.7-1.7,13.9-5.2c3.2-3.5,4.8-8.9,4.8-16.1V71.8h9.2v37.7c0,9.5-2.5,16.8-7.4,21.9
	C521.6,136.3,514.7,138.8,505.9,138.8z M553.3,71.8h27.9c7,0,13.2,1.4,18.7,4.2c5.4,2.8,9.6,6.7,12.6,11.7c3,5,4.5,10.7,4.5,17.2
	s-1.5,12.3-4.5,17.3c-3,5-7.2,8.9-12.6,11.6s-11.6,4.2-18.7,4.2h-27.9V71.8z M580.6,129.8c5.4,0,10.1-1,14.1-3.1
	c4.1-2.1,7.3-5,9.5-8.7c2.2-3.8,3.3-8.1,3.3-13.1s-1.1-9.2-3.3-13c-2.2-3.8-5.4-6.7-9.5-8.8c-4-2.1-8.7-3.1-14.1-3.1h-17.9v49.8
	H580.6z"/>
<g>
	<g>
		<linearGradient id="SVGID_1_" gradientUnits="userSpaceOnUse" x1="632" y1="93.9965" x2="787.1732" y2="93.9965">
			<stop  offset="0" style="stop-color:#E78D35"/>
			<stop  offset="1" style="stop-color:#FF0265"/>
		</linearGradient>
		<path class="st1" d="M637.3,120.6c-2.9,0-5.3,2.2-5.3,5s2.4,5,5.3,5c2.9,0,5.3-2.2,5.3-5S640.2,120.6,637.3,120.6z M655.3,136.5
			c-2.9,0-5.3,2.2-5.3,5c0,2.8,2.4,5,5.3,5c2.9,0,5.3-2.2,5.3-5C660.6,138.7,658.2,136.5,655.3,136.5z M655.3,120.6
			c-2.9,0-5.3,2.2-5.3,5s2.4,5,5.3,5c2.9,0,5.3-2.2,5.3-5S658.2,120.6,655.3,120.6z M673.5,136.4c-2.9,0-5.3,2.3-5.3,5s2.4,5,5.3,5
			c2.9,0,5.3-2.3,5.3-5S676.4,136.4,673.5,136.4z M673.5,120.6c-2.9,0-5.3,2.3-5.3,5s2.4,5,5.3,5c2.9,0,5.3-2.3,5.3-5
			S676.4,120.6,673.5,120.6z M691.4,136.5c-2.9,0-5.3,2.2-5.3,5c0,2.8,2.4,5,5.3,5c2.9,0,5.3-2.2,5.3-5
			C696.7,138.7,694.3,136.5,691.4,136.5z M691.4,120.6c-2.9,0-5.3,2.2-5.3,5s2.4,5,5.3,5c2.9,0,5.3-2.2,5.3-5
			S694.3,120.6,691.4,120.6z M709.6,136.4c-2.9,0-5.3,2.3-5.3,5s2.4,5,5.3,5c2.9,0,5.3-2.3,5.3-5S712.5,136.4,709.6,136.4z
			 M709.6,120.6c-2.9,0-5.3,2.3-5.3,5s2.4,5,5.3,5c2.9,0,5.3-2.3,5.3-5S712.5,120.6,709.6,120.6z M727.6,136.4c-2.9,0-5.3,2.3-5.3,5
			s2.4,5,5.3,5c2.9,0,5.3-2.3,5.3-5S730.5,136.4,727.6,136.4z M727.6,120.6c-2.9,0-5.3,2.3-5.3,5s2.4,5,5.3,5c2.9,0,5.3-2.3,5.3-5
			S730.5,120.6,727.6,120.6z M745.7,136.4c-2.9,0-5.3,2.3-5.3,5s2.4,5,5.3,5c2.9,0,5.3-2.3,5.3-5S748.7,136.4,745.7,136.4z
			 M745.7,120.6c-2.9,0-5.3,2.3-5.3,5s2.4,5,5.3,5c2.9,0,5.3-2.3,5.3-5S748.7,120.6,745.7,120.6z M637.3,104.9c-2.9,0-5.3,2.3-5.3,5
			s2.4,5,5.3,5c2.9,0,5.3-2.3,5.3-5S640.2,104.9,637.3,104.9z M655.3,104.9c-2.9,0-5.3,2.3-5.3,5s2.4,5,5.3,5c2.9,0,5.3-2.3,5.3-5
			S658.2,104.9,655.3,104.9z M655.3,89c-2.9,0-5.3,2.3-5.3,5c0,2.8,2.4,5,5.3,5c2.9,0,5.3-2.3,5.3-5C660.6,91.3,658.2,89,655.3,89z
			 M673.5,104.9c-2.9,0-5.3,2.3-5.3,5s2.4,5,5.3,5c2.9,0,5.3-2.3,5.3-5S676.4,104.9,673.5,104.9z M673.5,89c-2.9,0-5.3,2.3-5.3,5
			c0,2.8,2.4,5,5.3,5c2.9,0,5.3-2.3,5.3-5C678.8,91.3,676.4,89,673.5,89z M691.4,104.9c-2.9,0-5.3,2.3-5.3,5s2.4,5,5.3,5
			c2.9,0,5.3-2.3,5.3-5S694.4,104.9,691.4,104.9z M691.4,89c-2.9,0-5.3,2.3-5.3,5c0,2.8,2.4,5,5.3,5c2.9,0,5.3-2.3,5.3-5
			C696.7,91.3,694.4,89,691.4,89z M709.6,104.9c-2.9,0-5.3,2.3-5.3,5s2.4,5,5.3,5c2.9,0,5.3-2.3,5.3-5S712.5,104.9,709.6,104.9z
			 M709.6,89c-2.9,0-5.3,2.3-5.3,5c0,2.8,2.4,5,5.3,5c2.9,0,5.3-2.3,5.3-5C714.9,91.3,712.5,89,709.6,89z M727.6,104.9
			c-2.9,0-5.3,2.3-5.3,5s2.4,5,5.3,5c2.9,0,5.3-2.3,5.3-5S730.5,104.9,727.6,104.9z M727.6,89c-2.9,0-5.3,2.3-5.3,5
			c0,2.8,2.4,5,5.3,5c2.9,0,5.3-2.3,5.3-5C732.9,91.3,730.5,89,727.6,89z M745.7,104.9c-2.9,0-5.3,2.3-5.3,5s2.4,5,5.3,5
			c2.9,0,5.3-2.3,5.3-5S748.7,104.9,745.7,104.9z M745.7,89c-2.9,0-5.3,2.3-5.3,5c0,2.8,2.4,5,5.3,5c2.9,0,5.3-2.3,5.3-5
			C751,91.3,748.7,89,745.7,89z M655.3,73c-2.9,0-5.3,2.3-5.3,5s2.4,5,5.3,5c2.9,0,5.3-2.3,5.3-5S658.2,73,655.3,73z M673.5,73
			c-2.9,0-5.3,2.3-5.3,5s2.4,5,5.3,5c2.9,0,5.3-2.3,5.3-5S676.4,73,673.5,73z M673.5,57.2c-2.9,0-5.3,2.3-5.3,5c0,2.8,2.4,5,5.3,5
			c2.9,0,5.3-2.3,5.3-5C678.8,59.4,676.4,57.2,673.5,57.2z M691.4,73c-2.9,0-5.3,2.3-5.3,5s2.4,5,5.3,5c2.9,0,5.3-2.3,5.3-5
			S694.4,73,691.4,73z M691.4,57.2c-2.9,0-5.3,2.3-5.3,5c0,2.8,2.4,5,5.3,5c2.9,0,5.3-2.3,5.3-5C696.7,59.4,694.4,57.2,691.4,57.2z
			 M709.6,73c-2.9,0-5.3,2.3-5.3,5s2.4,5,5.3,5c2.9,0,5.3-2.3,5.3-5S712.5,73,709.6,73z M709.6,57.2c-2.9,0-5.3,2.3-5.3,5
			c0,2.8,2.4,5,5.3,5c2.9,0,5.3-2.3,5.3-5C714.9,59.4,712.5,57.2,709.6,57.2z M727.6,73c-2.9,0-5.3,2.3-5.3,5s2.4,5,5.3,5
			c2.9,0,5.3-2.3,5.3-5S730.5,73,727.6,73z M727.6,57.2c-2.9,0-5.3,2.3-5.3,5c0,2.8,2.4,5,5.3,5c2.9,0,5.3-2.3,5.3-5
			C732.9,59.4,730.5,57.2,727.6,57.2z M745.7,73c-2.9,0-5.3,2.3-5.3,5s2.4,5,5.3,5c2.9,0,5.3-2.3,5.3-5S748.7,73,745.7,73z
			 M691.4,41.5c-2.9,0-5.3,2.3-5.3,5s2.4,5,5.3,5c2.9,0,5.3-2.3,5.3-5S694.4,41.5,691.4,41.5z M709.6,41.5c-2.9,0-5.3,2.3-5.3,5
			s2.4,5,5.3,5c2.9,0,5.3-2.3,5.3-5S712.5,41.5,709.6,41.5z M763.7,136.5c-2.9,0-5.3,2.2-5.3,5c0,2.8,2.4,5,5.3,5
			c2.9,0,5.3-2.2,5.3-5C769,138.7,766.6,136.5,763.7,136.5z M763.7,120.6c-2.9,0-5.3,2.2-5.3,5s2.4,5,5.3,5c2.9,0,5.3-2.2,5.3-5
			S766.6,120.6,763.7,120.6z M781.9,120.6c-2.9,0-5.3,2.3-5.3,5s2.4,5,5.3,5c2.9,0,5.3-2.3,5.3-5S784.8,120.6,781.9,120.6z
			 M763.7,104.9c-2.9,0-5.3,2.3-5.3,5s2.4,5,5.3,5c2.9,0,5.3-2.3,5.3-5S766.6,104.9,763.7,104.9z M763.7,89c-2.9,0-5.3,2.3-5.3,5
			c0,2.8,2.4,5,5.3,5c2.9,0,5.3-2.3,5.3-5C769,91.3,766.6,89,763.7,89z M781.9,104.9c-2.9,0-5.3,2.3-5.3,5s2.4,5,5.3,5
			c2.9,0,5.3-2.3,5.3-5S784.8,104.9,781.9,104.9z M781.9,99.1c2.9,0,5.3-2.3,5.3-5c0-2.8-2.4-5-5.3-5c-2.9,0-5.3,2.3-5.3,5
			C776.6,96.8,778.9,99.1,781.9,99.1z M763.7,73c-2.9,0-5.3,2.3-5.3,5s2.4,5,5.3,5c2.9,0,5.3-2.3,5.3-5S766.6,73,763.7,73z"/>
	</g>
</g>
</svg>
